<?xml version="1.0" standalone="no"?>
<!DOCTYPE svg PUBLIC "-//W3C//DTD SVG 20010904//EN"
 "http://www.w3.org/TR/2001/REC-SVG-20010904/DTD/svg10.dtd">
<svg version="1.0" xmlns="http://www.w3.org/2000/svg"
 width="512.000000pt" height="512.000000pt" viewBox="0 0 512.000000 512.000000"
 preserveAspectRatio="xMidYMid meet">

<g transform="translate(0.000000,512.000000) scale(0.100000,-0.100000)"
fill="rgb(255, 255, 255)" stroke="none">
<path d="M4730 4625 c-429 -183 -883 -553 -1303 -1060 -55 -66 -105 -126 -111
-133 -10 -10 -30 -8 -107 12 -366 94 -794 98 -1224 10 -66 -14 -131 -27 -145
-29 -22 -4 -34 8 -105 107 -104 145 -403 447 -585 592 -220 176 -544 384 -763
492 -92 46 -87 48 -116 -76 -49 -211 -67 -525 -52 -883 6 -139 14 -266 17
-282 5 -29 10 -31 122 -64 64 -19 120 -37 124 -40 4 -4 -45 -51 -108 -104
l-115 -99 6 -41 c16 -105 85 -306 163 -477 23 -52 31 -86 36 -165 25 -344 101
-650 226 -913 68 -143 165 -295 236 -369 l49 -52 120 -27 c132 -29 293 -75
429 -125 l88 -32 -172 -84 c-171 -83 -215 -112 -109 -72 73 28 352 99 389 99
16 0 31 -4 34 -9 3 -4 -35 -38 -84 -75 -49 -36 -92 -71 -95 -76 -3 -6 24 5 62
24 37 19 100 44 140 56 l71 21 39 -20 c22 -11 90 -54 152 -96 192 -131 307
-169 496 -168 151 1 239 23 393 98 88 44 128 70 185 124 l72 69 86 -27 c47
-15 115 -42 150 -59 l64 -32 -40 35 c-22 20 -70 56 -108 82 -42 30 -64 50 -58
56 12 12 208 -30 366 -78 60 -19 112 -32 114 -29 4 3 -269 137 -324 159 -18 7
-17 9 12 21 105 45 399 118 620 154 92 15 144 49 213 138 108 139 212 400 284
712 36 159 80 404 92 520 4 42 25 109 56 188 179 450 236 1040 162 1667 -17
146 -53 364 -63 381 -4 8 -30 1 -81 -21z m-3367 -2455 c311 -60 619 -228 867
-471 80 -78 180 -194 180 -209 0 -11 -221 -92 -340 -124 -162 -43 -275 -59
-420 -59 -229 1 -368 51 -501 183 -142 142 -219 351 -219 600 l0 99 33 4 c68
11 295 -3 400 -23z m2755 24 l52 -7 0 -71 c-1 -168 -33 -312 -101 -453 -84
-174 -217 -284 -406 -334 -60 -16 -109 -22 -213 -22 -142 -1 -225 10 -380 49
-113 28 -368 113 -389 130 -8 7 115 147 198 226 230 219 493 370 765 438 166
42 348 59 474 44z"/>
<path d="M1566 1973 c-115 -169 -120 -345 -15 -502 l42 -62 34 33 c19 18 48
61 65 96 37 75 48 188 28 281 -13 60 -85 221 -99 221 -5 0 -30 -30 -55 -67z"/>
<path d="M3463 2029 c-42 -53 -91 -190 -99 -278 -10 -110 40 -255 113 -323
l21 -20 36 49 c120 162 109 385 -27 547 -26 31 -35 36 -44 25z"/>
</g>
</svg>
